# xmcd
#
# Track frame offsets:
#	150
#	15163
#	29700
#	45715
#	65334
#	77247
#	98924
#	112419
#	126823
#	141147
#	160842
#	175557
#	195961
#	211108
#	225887
#	240070
#	256457
#	269806
#
# Disc length: 3827 seconds
#
# Revision: 1
# Processed by: cddbd v1.5PL3 Copyright (c) Steve Scherf et al.
# Submitted via: MusicWizard 7.0.2
#
DISCID=e90ef112
DTITLE=Various Artist - Deutsch Country - Take It Easy, Altes Haus
DYEAR=1900
DGENRE=Country
TTITLE0=Juliane Werding - Wenn Du Denkst Du Denkst
TTITLE1=Volker Lechtenbrink - Der Macher
TTITLE2=Howard Carpendale - Ich Fahr Uns Nach Haus
TTITLE3=Gunter Gabriel - Er Ist Ein Kerl ( 30 Tonner Diesel)
TTITLE4=Tom Astor - Hallo Guten Morgen Deutschland
TTITLE5=Jonny Hill - Ruf Teddybär Eins-Vier
TTITLE6=Truck Stop - Take It Easy Altes Haus
TTITLE7=Jan Hayston - Ich Bin Gefühl, Du Bist Verstand
TTITLE8=Greyhounds - Asphalt Cowboy
TTITLE9=Stefan Waggershausen - Du Bist Mir Total Egal
TTITLE10=Linda Feller - Sonnenkinder Sind Wir Alle
TTITLE11=Hoffmann and Hoffmann - Trag Mich Zu Den Sternen
TTITLE12=Peter Sebastian - Das Ist Ein Wahnsins Wunder
TTITLE13=Die Wilden - Ich Hab' Ein Reihenhaus In Hamburg
TTITLE14=Bruce Low - Das Alte Haus Von Rocky Docky
TTITLE15=Wencke Myhre - Breite Uns're Decke Aus
TTITLE16=Freddy Quenn - Green Green Grass Of Home
TTITLE17=Thommie Bayer - Der Letzte Cowboy
EXTD=
EXTT0=
EXTT1=
EXTT2=
EXTT3=
EXTT4=
EXTT5=
EXTT6=
EXTT7=
EXTT8=
EXTT9=
EXTT10=
EXTT11=
EXTT12=
EXTT13=
EXTT14=
EXTT15=
EXTT16=
EXTT17=
PLAYORDER=
